<svg viewBox="0 0 579 723" xmlns="http://www.w3.org/2000/svg">
  <path d="M415.082 653.652v.928c0 3.812-.004 7.622-.097 11.42-.318 13.001-2.29 25.958-1.97 39 .078 3.216.503 6.414.954 9.608l.338 2.396c.278 1.997.535 3.994.693 5.996h-55c0-29.108-1.945-58.969.09-88 1.177-16.801 7.129-33.067 7.871-50 .332-7.581.016-15.232-.34-22.888l-.179-3.828C367.207 553.18 367 548.08 367 543c0-18.318 1.436-36.609.985-55-.252-10.318-2.22-20.662-1.97-31 .185-7.674 1.61-15.333 1.946-23 .61-13.946.034-28.04.039-42 .002-4.602 1.544-9.53 1.205-14-.324-4.271-2.188-8.665-2.78-13-1.544-11.307-2.556-22.621-3.335-34-1.542-22.507-1.467-45.733-5.555-68-1.5-8.17-7.38-12.25-13.544-16.358l-.712-.475-.713-.476c-2.26-1.512-4.515-3.07-6.566-4.875-8.49-7.473-15.007-16.932-21.888-25.816-4.12-5.32-8.922-9.911-11.977-16-3.014-6.006-3.75-13.526-5.559-20a399.541 399.541 0 0 0-1.963-6.736l-.67-2.24c-2.453-8.21-4.848-16.421-5.769-25.024-2.441-22.794.921-46.323-2.613-69-1.535-9.85-6.313-18.137-11.055-26.692l-.729-1.319c-.364-.66-.726-1.323-1.086-1.989-3.007-5.564-6.499-10.527-6.691-17 8.094 5.934 7.084 19.264 17 24-.859-4.99-2.378-9.747-3.927-14.48l-.517-1.576C276.235 29.851 274.006 22.766 274 15c14.798.8 25.758 18.384 32.345 30 13.85 24.427 20.423 53.973 27.181 81 1.666 6.66 3.821 13.225 5.01 20 .621 3.536-.132 7.7 1.643 10.941 2.078 3.793 7.67 4.6 13.25 5.077l.816.067c3.667.297 7.253.507 9.751 1.389 4.339 1.531 6.925 5.55 11.004 7.526-2.092-7.824-3.336-14.98-4.285-23-.543-4.582-1.53-9.586.375-14 2.223-5.153 7.029-9.118 10.91-13 5.364-5.365 10.799-11.609 18-14.518 13.597-5.491 36.498 1.374 45.442 12.608 4.406 5.534 4.555 13.171 4.558 19.91v32c16.175 0 31.196-2.783 47-5.739 5.26-.984 14.552-.666 18.853-3.864 2.506-1.865 3.26-4.865 3.835-7.788l.125-.648c.062-.323.123-.644.186-.961 1.634-8.266 3.669-16.673 4.87-25 1.401-9.714 3.66-19.149 4.092-29 .698-15.956-2.592-30.71-6.49-46-1.073-4.208-3.907-7.264-5.918-11-3.567-6.626-6.898-15.5-7.553-23 8.903 4.154 9.131 13.42 16 19 0-12.342-2.274-24.752 0-37 16.163 3.843 22.783 28.025 25.664 42 3.726 18.069 11.659 34.822 14.872 53 3.297 18.648 1.799 39.445-1.46 58-3.695 21.044-9.279 45.995-21.18 64-4.327 6.546-10.058 12.613-15.896 17.826-3.476 3.105-8.476 5.645-10.258 10.189-4.287 10.932-1.277 25.66-.781 36.985.364 8.315-.44 16.695.128 25 1.212 17.695 3.061 35.341 4.741 53 .343 3.598.889 8.612-.857 11.91-1.763 3.331-5.444 4.895-5.361 9.094.229 11.541 2.118 23.443 3.218 34.996.411 4.317-.2 8.708.495 13 3.636 22.469 9.646 44.578 13.591 67 2.923 16.616 4.569 33.423 7.695 50 1.217 6.454 4.005 12.619 5.126 19 .978 5.571-.114 11.379.691 17 3.008 21.002 7.058 42.286 11.202 63 .39 1.948 1.043 3.799 1.736 5.635l.597 1.573c.597 1.573 1.175 3.153 1.592 4.792 1.576 6.198 1.636 12.11 4.489 18 1.31 2.704 2.974 5.104 4.654 7.482l.84 1.189c2.236 3.172 4.403 6.39 5.702 10.329 3.001 9.096 2.76 19.549 2.76 29h-69c0-23.406-4.57-49.121-10.458-71.714-4.254-16.322-11.019-32.01-15.633-48.286-6.185-21.815-9.311-44.039-14.651-66-3.406-14.006-6.048-28.726-11.776-42l-.117-.27-.236-.537c-2.536-5.73-5.748-11.134-13.114-9.95-5.032.808-6.655 5.693-7.688 10.265l-.124.558c-.222 1.02-.42 2.014-.627 2.934-3.258 14.538-5.57 30.077-5.576 45 0 .396.001.793.004 1.191L430 545c0 7.24.495 14.852.451 22.385-.082 5.661-.496 11.26-1.662 16.615-1.216 5.578-5.101 8.87-6.939 14.015-2.936 8.22-4.422 19.323-5.561 27.985-1.16 8.821-1.208 17.74-1.207 26.652ZM196 26c6.705 1.599 10.329 7.477 13.432 13.613l.378.753c1.501 3.013 2.903 6.048 4.506 8.634 2.712 4.374 4.273 8.145 9.684 9l4-26c8.667 4.079 10.94 14.504 13.424 23 7.254 24.805 2.964 47.369-2.383 72-1.579 7.275-4.982 14.113-7.697 21-6.291 15.961-13.537 31.75-23.181 46-3.509 5.185-7.452 10.16-11.749 14.714-3.042 3.224-7.538 6.799-8.656 11.286-.693 2.786.204 6.145.238 9 .08 6.754.195 13.282.834 20 1.371 14.404 2.52 28.647 4.746 43C199.758 331.861 204 371.659 204 412c-8.384-.006-16.661-1.342-25-2 0 9.753-1.536 19.292-1.961 29-.246 5.62-.387 11.247-.519 16.874l-.113 4.823c-.252 10.45-.57 20.897-1.577 31.303-1.034 10.687-3.006 21.269-3.74 32-1.042 15.206.361 30.881-1.264 46-2.072 19.287-11.935 37.734-14.537 57-3.183 23.558-2.894 47.619-2.54 71.533l.084 5.661c.09 6.286.167 12.559.167 18.806H96c0-8.421-.385-16.75-.745-25.05l-.125-2.927c-.045-1.057-.088-2.113-.129-3.169-.508-13.244-.676-26.449 1.208-39.854.38-2.704 1.134-5.356 1.933-8.005l.602-1.987c.7-2.319 1.37-4.644 1.792-7.008 1.405-7.878 2.748-15.745 3.877-23.617 1.54-9.772 2.827-19.6 3.497-29.383.414-6.052.075-12.134-.501-18.216A172.388 172.388 0 0 0 106.285 550c-1.395-11.358-.377-22.675-1.455-34-.277-2.91-.274-6.26-1.061-9.194A57.787 57.787 0 0 0 103 503c-.18.223-.36.447-.539.673A8.563 8.563 0 0 0 102 503c-6.247 9.13-13.011 19.258-16.09 30-1.629 5.681-2.328 11.541-2.937 17.4l-.258 2.51c-.558 5.435-1.14 10.847-2.42 16.09-4.69 19.228-14.143 37.262-16.995 57-2.465 17.062-.785 34.427.9 51.531.535 7.26 1.155 14.506 1.786 21.757C66.5 707.182 66.999 715.076 68 723H0c1.426-11.283.963-22.697 2.174-34 1.152-10.768 2.802-21.5 4.493-32.23l1.017-6.439c1.014-6.439 2.01-12.88 2.89-19.331.61-4.467 1.086-8.94 1.54-13.414l.45-4.474c.677-6.711 1.389-13.42 2.517-20.112 2.234-13.252 7.015-25.987 10.254-39 3.002-12.063 4.764-24.684 6.383-37 2.386-18.145 5.938-36.779 7.192-55 1.248-18.111.148-37.414 5.09-55l-1-1h-2c-2.374 7.415-10.236 14.884-16 20 0-7.213.747-14.891-.62-22-1.004-5.226-4.482-9.549-4.32-15 .097-3.285 1.553-6.176 3.07-9.035l.536-1.008c1.512-2.856 2.932-5.72 2.96-8.957.033-3.789-2.167-7.234-2.522-11-.913-9.696 1.008-21.611 3.48-31 2.7-10.259 7.845-19.368 12.107-29 9.054-20.459 17.754-42.573 19.398-65 .072-.986.164-1.97.263-2.953l.152-1.475c.434-4.177.872-8.347.308-12.572-.836-6.258-5.462-10.78-9.813-14.961-8.669-8.33-18.544-15.468-26.96-24.054C5.295 159.882 3.223 136.412 3.02 112.423l-.01-1.548-.004-.774L3 108.55 3 107c0-8.42-1.573-20.464 3.228-27.895 2.031-3.144 5.27-4.483 8.54-5.81l.786-.32c2.223-.91 4.42-1.88 6.218-3.474 4.544-4.025 5.396-11.631 9.271-16.457 2.013-2.507 5.22-5.88 8.563-3.397 2.49 1.85 3.174 5.112 3.586 8.325l.082.663c.185 1.545.33 3.055.61 4.365 2.107 9.866.837 19.64-.412 29.438l-.226 1.782c-.786 6.238-1.48 12.488-1.207 18.78.216 4.972-.543 15.937 4.11 18.836 3.88 2.418 8.815 3.606 13.775 4.722l1.488.333c3.717.834 7.39 1.693 10.588 3.063 7.542 3.233 12.61 10.258 20 13.629 6.513 2.97 17.716-.082 23.941-3.096 5.519-2.672 4.296-10.448 3.635-15.487-1.262-9.608-1.246-23.732 4.483-31.985 12.371-17.825 46.888-20.058 58.578-.014C190.132 115.852 187 134.727 187 149c4.254-4.046 5.257-10.774 7.861-16 5.317-10.669 11.129-24.902 11.11-37-.012-7.53-3.323-15.553-4.71-23-2.81-15.078-5.219-31.652-5.261-47Z"/>
</svg>
