<svg viewBox="0 0 2200 266" xmlns="http://www.w3.org/2000/svg">
  <path d="M0 0v266h2200V118c-5.58.12-11.43 1.91-17 1.24-15.66-1.87-31.15-6.56-47-8.07-2.88-.27-6.21-.49-9 .41-3.16 1.03-5.46 3.41-9 2.8-11.05-1.88-18.82-9.64-29-13.25-5.45-1.94-11.36-.75-17-1.3-5.36-.52-10.62-2.71-15.99-2.77-8.99-.1-11.72 10.5-20.01 11.79-6.23.97-15.85 1.26-22-.16-5.95-1.38-9.52-3.83-16-3.68-9.38.23-18.73 3.23-28 4.56-11.01 1.58-22.94 2.08-34 2.65-5.65.29-14.99-1.12-20-3.79-3.67-1.96-7.44-7.21-11.96-6.88-3.62.25-6.78 5.15-6.69 8.54.14 6 2.94 12.15-6.35 12.55-5.96.26-12-1.61-18-1.64-17.28-.08-34.86 1.11-52-1.43-6.38-.94-12.86-2.24-19-4.24-4.12-1.34-8.6-3.96-13-4.02-7.25-.09-11.88 4.54-18 7.18-4.99 2.15-11.64 1.83-17 2.34-5.69.54-12.47.84-18-.71-6.1-1.7-12.53-5.85-19-5.73-4.95.1-9.98 2.18-15 2.52-6.43.44-13.72-1.12-20 .41-5.54 1.35-8.89 5.36-15 5.64-6.61.3-13.36-.32-18.96-4.21-4.78-3.33-7.21-10.36-14.04-9.51-7.39.93-14.81 6.85-22 9.07-2.93.91-6.05.71-9 1.59-7.13 2.13-14.66 6.2-22 7.21-7.51 1.02-15.55-.22-23 1.12-3.68.66-6.31 3.73-10 4.17-7.22.86-14.77-1.62-22-1.36-3.48.13-7.55 2.27-10.95 1.27-5.51-1.63-8.03-8.42-15.03-6.83-7.56 1.71-4.6 13.01-12.04 14.61-8.29 1.79-11.24-10.57-18.02-12.2-3.48-.84-5.3 2.63-8.13 3.81-2.58 1.06-6.06.81-8.83 1.3-.63-3.08-1.28-4.43-4-6-2.2 8.43-9.82 11.92-11 21-3.57-1.01-5.77-3.53-9.09-5.06-5.15-2.38-11.4-1.98-16.91-1.39-5.97.64-10.6 6.29-17 5.58-5.38-.6-9.14-7.84-14.98-6.26-6.99 1.9-5.23 12.27-12.06 13.79-5.39 1.2-10.34-3.88-15.96-3.44-5.63.45-10.32 4.22-16 4.69-13.88 1.14-28.3-1.37-41.96.97-4.67.81-8.48 3.67-13.04 4.7-4.68 1.07-9.39-1.33-14-.07-7.46 2.05-14.64 7.17-22 9.9-5.44 2.01-11.42 1.73-17 3.34-5.19 1.5-9.64 5.22-15 6.04-6.9 1.05-14.07-.46-21 .32-4.29.48-6.93 4.15-11 4.78-6.04.93-13.84-1.41-20-1.8-4.2-.27-7.93 1.4-12 1.44-6.16.05-10.21-8.17-16.96-5.89-5.46 1.86-4.55 8.41-8.47 11.5-7.22 5.69-13.99-5.24-19.99-7.36-3.38-1.18-6.29.83-9.58 1.31-11.29 1.64-21.04 4.12-25 15.91-4.92-1.27-8.48-4.75-13.17-6.31-3.35-1.11-9.16-.7-12.66-.25-5.49.72-9.11 5.98-15.17 5.86-5.74-.12-10.03-7.12-15.96-5.52-6.24 1.68-5.74 10.45-13.029 10.98-5.056.36-12.017-2.82-17.011-4.02-7.309-1.75-14.56-1.34-22-1.78-2.62-.16-5.373-1.44-7.961-1.27-3.92.27-6.144 4.75-9.054 6.87-2.742 2.01-12.534 4.44-15.876 3.62-5.19-1.27-3.541-8.43-4.812-12.18-1.573-4.64-5.587-7.94-9.298-10.88-4.461-3.53-11.933-10.27-17.999-9.67-5.364.53-11.17 6.28-16.852 4.74-5.566-1.51-2.048-10.76-8.207-12.77-4.543-1.48-11.282-2.15-15.941-.99-2.31.57-4.548 2.44-7 2.27-5.011-.36-9.648-6.1-15-7.25-10.613-2.26-21.372-2.33-32-4.38-6.507-1.26-12.874-2.61-17-8.07-12.28 1.55-24.86-1.35-37-3.54-14.627-2.63-29.494-3.31-43.996-6.68-3.985-.92-7.097-3.5-11.019-4.48-7.303-1.81-15.475-3.69-22.985-4.21-7.687-.53-15.453.7-23-1.34-4.013-1.09-7.06-3.99-11-5.19-12.046-3.69-25.126-4.97-37-9.14-3.556-1.25-6.249-4-10-4.89-5.473-1.3-10.667 2.79-15.856 1.44-6.347-1.66-2.242-11.72-10.149-13.58-7.071-1.65-14.83-.59-21.995-1.6-11.753-1.65-23.011-5.82-35-6.7-9.648-.71-23.487-1.04-29-10.09-7.394 3.13-14.297.11-22 0-10.494-.14-20.685-2.86-31-4.59-9.661-1.62-19.523-2.31-28.961-5.13-5.927-1.76-10.712-4.83-17.039-6.02-8.668-1.63-17.203-2.57-26-3.17-4.358-.3-8.742.24-12.996-1.03-3.685-1.1-6.37-3.91-10.043-5.01-12.086-3.59-24.807-5.21-36.922-8.36-4.803-1.25-7.793-5.63-13.024-6.34-4.486-.61-6.994 2.94-11.019 4.08-5.23 1.48-12.699.61-17.996-.31-4.587-.79-7.268-3.22-11.285-5.02-2.513-1.13-5.241-.27-7.711-1.74-3.883-2.31-6.091-7.56-10.975-8.07-5.707-.6-5.81 7.53-12.032 7.37-4.867-.13-7.707-2.26-12.012-3.94-7.229-2.83-15.245-5.5-22.985-6.43-2.447-.3-6.185-.86-7.977 1.31-1.402 1.7-.821 5.08-3.341 5.83-1.742.51-3.943-.68-5.682-.89-6.118-.73-11.905-1.99-18-.54-2.918-6.88-12.001-6.56-17.945-10.14-3.646-2.19-4.823-8.11-9.099-9.11-3.714-.87-7.096 3.06-10.956 3.02-8.024-.08-15.927-2.23-24-1.68-5.934.41-12.104.49-18 1.2-4.815.57-10.165 2.29-15 1.32-9.129-1.84-18.738-6.69-27-10.86C9.312 3.39 5.343.39 0 0Z"/>
</svg>
