<svg viewBox="0 0 500 226" xmlns="http://www.w3.org/2000/svg"><title>It's a Very Exciting Time</title><path d="M0 136.45V77.603l8.43-1.493v58.847zM16.117 91.692V78.964l8.43-1.493v12.728l5.207-.922v6.612l-5.207.922v23.225c0 .992.096 1.746.29 2.263.192.517.509.874.95 1.071.44.198.978.268 1.611.211a28.692 28.692 0 0 0 2.356-.335v7.935l-3.471.615c-1.929.341-3.54.324-4.835-.053s-2.328-.966-3.1-1.766c-.771-.8-1.336-1.76-1.694-2.882a10.91 10.91 0 0 1-.537-3.334V98.304l-4.215.747v-6.613l4.215-.746ZM32.977 86.309V71.763l8.431-1.493v8.43zM59.095 95.818c-.055-1.423-.51-2.417-1.364-2.982-.854-.564-1.832-.75-2.934-.554-1.323.234-2.342.842-3.058 1.822-.716.98-1.075 2.022-1.075 3.124 0 .772.193 1.495.579 2.17.386.676 1.377 1.175 2.975 1.499l4.96 1.105c3.14.656 5.303 1.926 6.487 3.81 1.185 1.884 1.777 4.066 1.777 6.545 0 1.764-.317 3.459-.95 5.086a16.516 16.516 0 0 1-2.604 4.47 15.28 15.28 0 0 1-3.967 3.43 14.536 14.536 0 0 1-5.041 1.885c-3.417.604-6.282.037-8.596-1.702-1.157-.842-2.094-1.985-2.81-3.428-.716-1.443-1.102-3.207-1.157-5.291l7.934-1.405a6.742 6.742 0 0 0 1.199 3.01c.633.88 1.749 1.179 3.347.896 1.212-.215 2.3-.807 3.265-1.777.964-.97 1.446-2.17 1.446-3.603 0-1.157-.303-2.095-.91-2.815-.605-.719-1.707-1.24-3.305-1.563l-4.05-.77c-2.645-.524-4.725-1.63-6.24-3.317-1.515-1.688-2.273-3.937-2.273-6.747 0-1.764.33-3.461.992-5.094a15.234 15.234 0 0 1 2.727-4.408 14.294 14.294 0 0 1 3.885-3.209 14.901 14.901 0 0 1 4.793-1.716c1.709-.303 3.293-.281 4.753.067 1.46.347 2.714.98 3.76 1.896 1.047.917 1.874 2.08 2.48 3.487.606 1.407.91 2.966.91 4.674l-7.935 1.405ZM104.222 117.994v-4.298l-.166.03c-1.102 1.737-2.218 3.12-3.347 4.146-1.13 1.027-2.714 1.72-4.752 2.081-.992.176-1.998.203-3.017.08-1.02-.123-1.998-.514-2.934-1.175-.937-.605-1.695-1.587-2.273-2.944-.579-1.358-.868-3.194-.868-5.508 0-2.37.193-4.484.579-6.343.385-1.859 1.102-3.487 2.148-4.885.992-1.332 2.342-2.44 4.05-3.32 1.708-.882 3.885-1.556 6.53-2.025l.909-.16c.33-.059.633-.085.909-.079.275.006.606-.024.992-.093.385-.068.799-.114 1.24-.137v-4.38c0-1.432-.304-2.564-.91-3.393-.606-.83-1.708-1.102-3.306-.82-1.102.196-2.107.732-3.016 1.608-.91.878-1.502 2.03-1.777 3.456l-8.183 1.449c.22-3.786 1.488-7.04 3.802-9.765a15.38 15.38 0 0 1 3.967-3.306c1.543-.906 3.279-1.53 5.207-1.872 1.764-.312 3.417-.33 4.96-.051 1.542.277 2.892.864 4.05 1.762 1.101.907 1.983 2.127 2.644 3.663s.992 3.407.992 5.61v29.176l-8.43 1.493Zm0-18.018c-.937 0-1.709.055-2.315.162-1.818.322-3.375 1.025-4.67 2.108-1.294 1.083-1.942 2.755-1.942 5.014 0 1.598.386 2.824 1.157 3.68.772.855 1.846 1.16 3.224.916 1.432-.253 2.548-.92 3.347-1.998.799-1.078 1.199-2.47 1.199-4.179v-5.703ZM175.841 23.831l-16.708 84.439-10.3 1.824-16.593-78.542 12.359-2.188 9.27 55.234.229-.041 9.383-58.538zM182.822 104.075v-81.48l34.789-6.16v10.986l-23.117 4.093v23.917l20.141-3.566v10.986l-20.141 3.566v23.918l23.117-4.093v11.673zM236.836 24.016V49.42l6.638-1.175c2.06-.365 3.7-.941 4.92-1.73 1.221-.788 2.175-1.777 2.862-2.967.61-1.176 1.03-2.566 1.258-4.17.23-1.605.344-3.438.344-5.498s-.115-3.851-.344-5.374c-.228-1.524-.686-2.797-1.373-3.82-1.45-1.88-4.196-2.46-8.24-1.745l-6.065 1.074Zm-11.672 72.561v-81.48l18.768-3.324c13.732-2.431 20.598 4.325 20.598 20.27 0 4.806-.743 9.02-2.231 12.64-1.488 3.62-4.1 6.791-7.84 9.514l12.59 34.963-12.36 2.188-10.872-32.864-6.98 1.236v34.79l-11.673 2.067ZM282.726 86.383V51.937L266.705 7.741l12.359-2.189 9.384 30.725.229-.041 9.384-34.048L310.42 0l-16.021 49.871v34.446zM1.278 225.231v-81.48l34.789-6.161v10.987l-23.116 4.093v23.918l20.141-3.567v10.986l-20.141 3.567v23.917l23.116-4.093v11.673zM37.898 218.746l16.479-45.603-15.22-36.1 12.359-2.188 8.812 22.586 8.926-25.727 12.36-2.189-15.564 41.551 16.822 39.706-12.359 2.189-10.185-25.662-10.071 29.249zM125.215 180.053v5.035c0 2.518-.477 4.987-1.43 7.406a25.046 25.046 0 0 1-3.949 6.707 24.578 24.578 0 0 1-5.894 5.22 19.922 19.922 0 0 1-7.266 2.832 25.502 25.502 0 0 1-6.752.28c-2.29-.204-4.349-.908-6.18-2.11-1.831-1.2-3.338-2.899-4.52-5.092-1.183-2.194-1.774-5.16-1.774-8.898v-44.86c0-2.67.458-5.231 1.373-7.682a22.141 22.141 0 0 1 3.891-6.64c1.679-1.975 3.681-3.646 6.008-5.012 2.327-1.366 4.902-2.298 7.725-2.798 5.493-.973 9.956.03 13.389 3.007 1.678 1.458 2.994 3.304 3.948 5.538.954 2.234 1.43 4.763 1.43 7.586v4.577l-11.672 2.067v-3.89c0-2.29-.649-4.158-1.946-5.607-1.297-1.449-3.051-1.977-5.264-1.585-2.899.513-4.825 1.75-5.779 3.712-.954 1.962-1.43 4.316-1.43 7.063v41.655c0 2.365.515 4.258 1.545 5.678 1.03 1.42 2.88 1.893 5.55 1.42.763-.135 1.583-.414 2.46-.836a9.286 9.286 0 0 0 2.46-1.752c.687-.732 1.26-1.673 1.717-2.822.458-1.149.687-2.524.687-4.127v-4.005l11.673-2.067ZM135.056 201.541v-81.48l11.673-2.067v81.48zM165.726 196.11v-70.494l-13.504 2.391v-10.986l38.68-6.849v10.986l-13.504 2.391v70.494zM196.395 190.679v-81.48l11.673-2.067v81.48zM218.94 186.687v-81.48l11.214-1.986 17.624 45.973.229-.041v-49.094l11.673-2.067v81.48l-10.987 1.946-17.852-45.818-.229.04v48.98zM269.521 115.475c0-3.28.572-6.28 1.717-9.001 1.144-2.72 2.67-5.089 4.577-7.105a24.686 24.686 0 0 1 6.237-4.767c2.327-1.25 4.673-2.086 7.038-2.505a19.683 19.683 0 0 1 7.038.013c2.327.427 4.444 1.273 6.351 2.537 1.832 1.354 3.32 3.189 4.464 5.504 1.144 2.315 1.716 5.113 1.716 8.393v4.12l-11.673 2.067v-4.12c0-2.822-.782-4.763-2.346-5.821-1.564-1.058-3.414-1.398-5.55-1.02-2.136.379-3.986 1.374-5.55 2.986-1.564 1.612-2.346 3.83-2.346 6.652v43.029c0 2.823.782 4.763 2.346 5.821 1.564 1.058 3.414 1.398 5.55 1.02 2.136-.378 3.986-1.373 5.55-2.985 1.564-1.612 2.346-3.83 2.346-6.653v-15.334l-9.269 1.641v-10.3l20.942-3.708v25.634c0 3.433-.572 6.472-1.716 9.116-1.145 2.644-2.632 4.93-4.464 6.856-1.907 2.016-4.024 3.65-6.35 4.9-2.328 1.252-4.674 2.087-7.039 2.506a19.672 19.672 0 0 1-7.038-.013c-2.327-.427-4.406-1.318-6.237-2.672-1.907-1.264-3.433-3.016-4.577-5.254-1.145-2.239-1.717-5.075-1.717-8.508v-43.029ZM347.912 163.848V93.354l-13.504 2.391V84.759l38.68-6.849v10.986l-13.504 2.391v70.494zM378.581 158.417v-81.48l11.673-2.068v81.481zM401.583 154.344V72.863l11.215-1.985 14.991 40.488.229-.041 14.877-45.777 11.33-2.007v81.481l-11.673 2.067V97.537l-.229.041-11.558 37.064-5.837 1.034-11.443-32.992-.229.041v49.551zM465.211 143.076v-81.48L500 55.435v10.986l-23.117 4.095v23.917l20.142-3.566v10.985l-20.142 3.567v23.917L500 125.243v11.673z"/></svg>
