<!-- ufo by Adrien Coquet from https://thenounproject.com/icon/ufo-1673691/ -->
<svg width="96" height="92" viewBox="0 0 96 92" xmlns="http://www.w3.org/2000/svg"><path d="M48 66c-2 0-3.7 1.7-3.7 3.7v18.1c0 2 1.7 3.7 3.7 3.7s3.7-1.7 3.7-3.7V69.7c0-2-1.7-3.7-3.7-3.7Zm20.9-.6c-.7-1.9-2.8-2.9-4.7-2.2-1.9.7-2.9 2.8-2.2 4.7l6.2 17c.5 1.5 2 2.4 3.5 2.4.4 0 .8-.1 1.3-.2 1.9-.7 2.9-2.8 2.2-4.7l-6.3-17Zm-37-2.2c-1.9-.7-4 .3-4.7 2.2l-6.2 17c-.7 1.9.3 4 2.2 4.7.4.2.8.2 1.3.2 1.5 0 2.9-.9 3.5-2.4l6.2-17c.6-1.9-.4-4-2.3-4.7Zm45.9-43.8c.5 2.1.7 4.3.7 6.6 0 9.7-15.3 14.1-30.5 14.1-7.6 0-14.8-1.1-20.1-3.1-8.6-3.2-10.4-7.7-10.4-11 0-2.3.2-4.5.7-6.6C7.4 22.9.5 28.3.5 34.2.5 42 12 48.6 28.4 51.6c4.7 5.6 11.7 9.1 19.6 9.1 7.9 0 14.9-3.5 19.6-9.1 16.5-3 27.9-9.6 27.9-17.3 0-6-6.9-11.4-17.7-14.9Z"/><path d="M48 35.2c14.3 0 25.6-4 25.6-9.2C73.6 11.9 62.1.5 48 .5 33.9.5 22.4 11.9 22.4 26c0 5.2 11.3 9.2 25.6 9.2Zm13.6-17c2.3 0 4.1 1.8 4.1 4.1s-1.8 4.1-4.1 4.1-4.1-1.8-4.1-4.1c0-2.2 1.8-4.1 4.1-4.1Zm-13.6 0c2.3 0 4.1 1.8 4.1 4.1s-1.8 4.1-4.1 4.1-4.1-1.8-4.1-4.1c0-2.2 1.8-4.1 4.1-4.1Zm-13.6 0c2.3 0 4.1 1.8 4.1 4.1s-1.8 4.1-4.1 4.1-4.1-1.8-4.1-4.1c0-2.2 1.9-4.1 4.1-4.1Z"/></svg>
